<svg width="16" height="16" viewBox="0 0 16 16" fill="none" xmlns="http://www.w3.org/2000/svg">
<g clip-path="url(#clip0_1717_1375)">
<path fill-rule="evenodd" clip-rule="evenodd" d="M11.0326 0.426C10.8675 -0.142 9.9999 -0.142 9.83481 0.426L9.60208 1.23109C9.09881 2.96636 8.41227 4.32127 6.54539 4.78818L5.67848 5.00491C5.54977 5.03052 5.43392 5.09997 5.35067 5.20142C5.26742 5.30287 5.22192 5.43004 5.22192 5.56127C5.22192 5.69251 5.26742 5.81968 5.35067 5.92113C5.43392 6.02257 5.54977 6.09202 5.67848 6.11764L6.54539 6.33436C8.41227 6.802 9.09881 8.15687 9.60208 9.89142L9.83481 10.6966C9.9999 11.2652 10.8675 11.2652 11.0326 10.6966L11.2654 9.89142C11.7686 8.15687 12.4559 6.802 14.3228 6.33509L15.1883 6.11764C15.317 6.09202 15.4328 6.02257 15.5161 5.92113C15.5993 5.81968 15.6448 5.69251 15.6448 5.56127C15.6448 5.43004 15.5993 5.30287 15.5161 5.20142C15.4328 5.09997 15.317 5.03052 15.1883 5.00491L14.3228 4.78818C12.4559 4.32127 11.7686 2.96636 11.2654 1.23182L11.0326 0.426Z" fill="url(#paint0_linear_1717_1375)"/>
<path fill-rule="evenodd" clip-rule="evenodd" d="M3.8422 8.60859C3.74329 8.25368 3.22256 8.25368 3.12438 8.60859L2.98402 9.11186C2.68221 10.1955 2.27057 11.0428 1.14984 11.3351L0.630567 11.4704C0.552184 11.4888 0.482321 11.5332 0.432317 11.5962C0.382313 11.6594 0.355103 11.7375 0.355103 11.818C0.355103 11.8986 0.382313 11.9767 0.432317 12.0398C0.482321 12.1029 0.552184 12.1473 0.630567 12.1657L1.14984 12.3017C2.26984 12.5933 2.68221 13.4406 2.98402 14.5242L3.12438 15.0275C3.22256 15.3831 3.74329 15.3831 3.8422 15.0275L3.98257 14.5242C4.28366 13.4406 4.69675 12.5933 5.81675 12.3017L6.33602 12.1657C6.4144 12.1473 6.48427 12.1029 6.53427 12.0398C6.58427 11.9767 6.61149 11.8986 6.61149 11.818C6.61149 11.7375 6.58427 11.6594 6.53427 11.5962C6.48427 11.5332 6.4144 11.4888 6.33602 11.4704L5.81675 11.3351C4.69675 11.0435 4.28366 10.1962 3.98257 9.11186L3.8422 8.60859Z" fill="url(#paint1_linear_1717_1375)"/>
</g>
<defs>
<linearGradient id="paint0_linear_1717_1375" x1="5.22192" y1="0" x2="15.6448" y2="11.1231" gradientUnits="userSpaceOnUse">
<stop stop-color="#475CFF"/>
<stop offset="1" stop-color="#949FFB"/>
</linearGradient>
<linearGradient id="paint1_linear_1717_1375" x1="6.61149" y1="8.34241" x2="0.355102" y2="15.2942" gradientUnits="userSpaceOnUse">
<stop stop-color="#7A5AF8"/>
<stop offset="1" stop-color="#B5A2FF"/>
</linearGradient>
<clipPath id="clip0_1717_1375">
<rect width="16" height="16" fill="white"/>
</clipPath>
</defs>
</svg>
